<?xml version="1.0" encoding="utf-8"?>
<svg viewBox="0 0 1462.4931640625 627" xmlns="http://www.w3.org/2000/svg">
  <rect x="-8.845" y="-7.862" width="1481.508" height="641.25" style="stroke: rgb(0, 0, 0); fill: rgb(255, 255, 255); paint-order: fill; stroke-opacity: 0;" transform="matrix(1, 0, 0, 1, 0, 3.552713678800501e-15)"/>
  <svg x="822.07958984375" y="126" width="191.92041015625" height="192" transform="matrix(1, 0, 0, 1, 822.07958984375, 126)">
    <path d="M4,166L81.460205078125,166Q91.460205078125,166,91.460205078125,156L91.460205078125,32Q91.460205078125,22,101.460205078125,22L178.92041015625,22L101.460205078125,22Q91.460205078125,22,91.460205078125,32L91.460205078125,156Q91.460205078125,166,81.460205078125,166L4,166L4,166M14,162L14,170M178.92041015625,18L168.92041015625,22L178.92041015625,26" fill="none" stroke="#D3D3D3" stroke-width="1"/>
    <text x="7" y="163" style="font-family: 'Open Sans', sans-serif; font-size: 14px; font-weight: normal; fill: transparent; white-space: pre;">1</text>
    <text x="168.20947265625" y="19" style="font-family: 'Open Sans', sans-serif; font-size: 14px; font-weight: normal; fill: transparent; white-space: pre;">*</text>
  </svg>
  <svg x="822.07958984375" y="270" width="63.3837890625" height="219" transform="matrix(1, 0, 0, 1, 822.07958984375, 270.00000000000006)">
    <path d="M40.3837890625,193L50.3837890625,193Q60.3837890625,193,60.3837890625,183L60.3837890625,32Q60.3837890625,22,50.3837890625,22L4,22L50.3837890625,22Q60.3837890625,22,60.3837890625,32L60.3837890625,183Q60.3837890625,193,50.3837890625,193L40.3837890625,193L40.3837890625,193ZM40.3837890625,189L50.3837890625,193L40.3837890625,197M14,18L14,26" fill="none" stroke="#D3D3D3" stroke-width="1"/>
    <text x="43.3837890625" y="190" style="font-family: 'Open Sans', sans-serif; font-size: 14px; font-weight: normal; fill: transparent; white-space: pre;">*</text>
    <text x="7" y="19" style="font-family: 'Open Sans', sans-serif; font-size: 14px; font-weight: normal; fill: transparent; white-space: pre;">1</text>
  </svg>
  <svg x="478" y="238" width="202.0029296875" height="80" transform="matrix(1, 0, 0, 1, 478, 238.00000000000003)">
    <path d="M4,22L86.50146484375,22Q96.50146484375,22,96.50146484375,32L96.50146484375,44Q96.50146484375,54,106.50146484375,54L189.0029296875,54L106.50146484375,54Q96.50146484375,54,96.50146484375,44L96.50146484375,32Q96.50146484375,22,86.50146484375,22L4,22L4,22M4,18L14,22L4,26M179.0029296875,50L179.0029296875,58" fill="none" stroke="#D3D3D3" stroke-width="1"/>
    <text x="7" y="19" style="font-family: 'Open Sans', sans-serif; font-size: 14px; font-weight: normal; fill: transparent; white-space: pre;">*</text>
    <text x="177.998046875" y="51" style="font-family: 'Open Sans', sans-serif; font-size: 14px; font-weight: normal; fill: transparent; white-space: pre;">1</text>
  </svg>
  <svg x="478" y="270" width="202.0029296875" height="48" transform="matrix(1, 0, 0, 1, 478, 270.00000000000006)">
    <path d="M4,22L96.50146484375,22Q96.50146484375,22,96.50146484375,22L96.50146484375,22Q96.50146484375,22,96.50146484375,22L189.0029296875,22L96.50146484375,22Q96.50146484375,22,96.50146484375,22L96.50146484375,22Q96.50146484375,22,96.50146484375,22L4,22L4,22M4,18L14,22L4,26M179.0029296875,18L179.0029296875,26" fill="none" stroke="#D3D3D3" stroke-width="1"/>
    <text x="7" y="19" style="font-family: 'Open Sans', sans-serif; font-size: 14px; font-weight: normal; fill: transparent; white-space: pre;">*</text>
    <text x="177.998046875" y="19" style="font-family: 'Open Sans', sans-serif; font-size: 14px; font-weight: normal; fill: transparent; white-space: pre;">1</text>
  </svg>
  <svg x="478" y="270" width="202.0029296875" height="80" transform="matrix(1, 0, 0, 1, 478, 270.00000000000006)">
    <path d="M4,54L86.50146484375,54Q96.50146484375,54,96.50146484375,44L96.50146484375,32Q96.50146484375,22,106.50146484375,22L189.0029296875,22L106.50146484375,22Q96.50146484375,22,96.50146484375,32L96.50146484375,44Q96.50146484375,54,86.50146484375,54L4,54L4,54M4,50L14,54L4,58M179.0029296875,18L179.0029296875,26" fill="none" stroke="#D3D3D3" stroke-width="1"/>
    <text x="7" y="51" style="font-family: 'Open Sans', sans-serif; font-size: 14px; font-weight: normal; fill: transparent; white-space: pre;">*</text>
    <text x="177.998046875" y="19" style="font-family: 'Open Sans', sans-serif; font-size: 14px; font-weight: normal; fill: transparent; white-space: pre;">1</text>
  </svg>
  <svg x="822.07958984375" y="270" width="191.92041015625" height="219" transform="matrix(1, 0, 0, 1, 822.07958984375, 270.00000000000006)">
    <path d="M4,22L81.460205078125,22Q91.460205078125,22,91.460205078125,32L91.460205078125,183Q91.460205078125,193,101.460205078125,193L178.92041015625,193L101.460205078125,193Q91.460205078125,193,91.460205078125,183L91.460205078125,32Q91.460205078125,22,81.460205078125,22L4,22L4,22M14,18L14,26M178.92041015625,189L168.92041015625,193L178.92041015625,197" fill="none" stroke="#D3D3D3" stroke-width="1"/>
    <text x="7" y="19" style="font-family: 'Open Sans', sans-serif; font-size: 14px; font-weight: normal; fill: transparent; white-space: pre;">1</text>
    <text x="168.20947265625" y="190" style="font-family: 'Open Sans', sans-serif; font-size: 14px; font-weight: normal; fill: transparent; white-space: pre;">*</text>
  </svg>
  <svg x="822.07958984375" y="270" width="191.92041015625" height="251" transform="matrix(1, 0, 0, 1, 822.07958984375, 270.00000000000006)">
    <path d="M4,22L81.460205078125,22Q91.460205078125,22,91.460205078125,32L91.460205078125,215Q91.460205078125,225,101.460205078125,225L178.92041015625,225L101.460205078125,225Q91.460205078125,225,91.460205078125,215L91.460205078125,32Q91.460205078125,22,81.460205078125,22L4,22L4,22M14,18L14,26M178.92041015625,221L168.92041015625,225L178.92041015625,229" fill="none" stroke="#D3D3D3" stroke-width="1"/>
    <text x="7" y="19" style="font-family: 'Open Sans', sans-serif; font-size: 14px; font-weight: normal; fill: transparent; white-space: pre;">1</text>
    <text x="168.20947265625" y="222" style="font-family: 'Open Sans', sans-serif; font-size: 14px; font-weight: normal; fill: transparent; white-space: pre;">*</text>
  </svg>
  <svg x="822.07958984375" y="270" width="427.3837890625" height="48" transform="matrix(1, 0, 0, 1, 822.07958984375, 270.00000000000006)">
    <path d="M4,22L209.19189453125,22Q209.19189453125,22,209.19189453125,22L209.19189453125,22Q209.19189453125,22,209.19189453125,22L414.3837890625,22L209.19189453125,22Q209.19189453125,22,209.19189453125,22L209.19189453125,22Q209.19189453125,22,209.19189453125,22L4,22L4,22M14,18L14,26M414.3837890625,18L404.3837890625,22L414.3837890625,26" fill="none" stroke="#D3D3D3" stroke-width="1"/>
    <text x="7" y="19" style="font-family: 'Open Sans', sans-serif; font-size: 14px; font-weight: normal; fill: transparent; white-space: pre;">1</text>
    <text x="403.6728515625" y="19" style="font-family: 'Open Sans', sans-serif; font-size: 14px; font-weight: normal; fill: transparent; white-space: pre;">*</text>
  </svg>
  <svg x="822.07958984375" y="270" width="427.3837890625" height="80" transform="matrix(1, 0, 0, 1, 822.07958984375, 270.00000000000006)">
    <path d="M4,22L199.19189453125,22Q209.19189453125,22,209.19189453125,32L209.19189453125,44Q209.19189453125,54,219.19189453125,54L414.3837890625,54L219.19189453125,54Q209.19189453125,54,209.19189453125,44L209.19189453125,32Q209.19189453125,22,199.19189453125,22L4,22L4,22M14,18L14,26M414.3837890625,50L404.3837890625,54L414.3837890625,58" fill="none" stroke="#D3D3D3" stroke-width="1"/>
    <text x="7" y="19" style="font-family: 'Open Sans', sans-serif; font-size: 14px; font-weight: normal; fill: transparent; white-space: pre;">1</text>
    <text x="403.6728515625" y="51" style="font-family: 'Open Sans', sans-serif; font-size: 14px; font-weight: normal; fill: transparent; white-space: pre;">*</text>
  </svg>
  <svg x="822.07958984375" y="58" width="63.3837890625" height="260" transform="matrix(1, 0, 0, 1, 822.07958984375, 58)">
    <path d="M40.3837890625,22L50.3837890625,22Q60.3837890625,22,60.3837890625,32L60.3837890625,224Q60.3837890625,234,50.3837890625,234L4,234L50.3837890625,234Q60.3837890625,234,60.3837890625,224L60.3837890625,32Q60.3837890625,22,50.3837890625,22L40.3837890625,22L40.3837890625,22ZM40.3837890625,18L50.3837890625,22L40.3837890625,26M14,230L14,238" fill="none" stroke="#D3D3D3" stroke-width="1"/>
    <text x="43.3837890625" y="19" style="font-family: 'Open Sans', sans-serif; font-size: 14px; font-weight: normal; fill: transparent; white-space: pre;">*</text>
    <text x="7" y="231" style="font-family: 'Open Sans', sans-serif; font-size: 14px; font-weight: normal; fill: transparent; white-space: pre;">1</text>
  </svg>
  <svg x="185.15185546875" y="74" width="97.85107421875" height="180" transform="matrix(1, 0, 0, 1, 185.15185546875, 74)">
    <path d="M4,22L34.425537109375,22Q44.425537109375,22,44.425537109375,32L44.425537109375,144Q44.425537109375,154,54.425537109375,154L84.85107421875,154L54.425537109375,154Q44.425537109375,154,44.425537109375,144L44.425537109375,32Q44.425537109375,22,34.425537109375,22L4,22L4,22M4,18L14,22L4,26M74.85107421875,150L74.85107421875,158" fill="none" stroke="#D3D3D3" stroke-width="1"/>
    <text x="7" y="19" style="font-family: 'Open Sans', sans-serif; font-size: 14px; font-weight: normal; fill: transparent; white-space: pre;">*</text>
    <text x="73.84619140625" y="151" style="font-family: 'Open Sans', sans-serif; font-size: 14px; font-weight: normal; fill: transparent; white-space: pre;">1</text>
  </svg>
  <svg x="185.15185546875" y="206" width="97.85107421875" height="214" transform="matrix(1, 0, 0, 1, 185.15185546875, 206)">
    <path d="M4,188L34.425537109375,188Q44.425537109375,188,44.425537109375,178L44.425537109375,32Q44.425537109375,22,54.425537109375,22L84.85107421875,22L54.425537109375,22Q44.425537109375,22,44.425537109375,32L44.425537109375,178Q44.425537109375,188,34.425537109375,188L4,188L4,188M4,184L14,188L4,192M74.85107421875,18L74.85107421875,26" fill="none" stroke="#D3D3D3" stroke-width="1"/>
    <text x="7" y="185" style="font-family: 'Open Sans', sans-serif; font-size: 14px; font-weight: normal; fill: transparent; white-space: pre;">*</text>
    <text x="73.84619140625" y="19" style="font-family: 'Open Sans', sans-serif; font-size: 14px; font-weight: normal; fill: transparent; white-space: pre;">1</text>
  </svg>
  <svg x="571.46044921875" y="270" width="108.54248046875" height="271" transform="matrix(1, 0, 0, 1, 571.46044921875, 270.00000000000006)">
    <path d="M4,245L39.771240234375,245Q49.771240234375,245,49.771240234375,235L49.771240234375,32Q49.771240234375,22,59.771240234375,22L95.54248046875,22L59.771240234375,22Q49.771240234375,22,49.771240234375,32L49.771240234375,235Q49.771240234375,245,39.771240234375,245L4,245L4,245M4,241L14,245L4,249M85.54248046875,18L85.54248046875,26" fill="none" stroke="#D3D3D3" stroke-width="1"/>
    <text x="7" y="242" style="font-family: 'Open Sans', sans-serif; font-size: 14px; font-weight: normal; fill: transparent; white-space: pre;">*</text>
    <text x="84.53759765625" y="19" style="font-family: 'Open Sans', sans-serif; font-size: 14px; font-weight: normal; fill: transparent; white-space: pre;">1</text>
  </svg>
  <svg x="571.46044921875" y="270" width="108.54248046875" height="303" transform="matrix(1, 0, 0, 1, 571.46044921875, 270.00000000000006)">
    <path d="M4,277L39.771240234375,277Q49.771240234375,277,49.771240234375,267L49.771240234375,32Q49.771240234375,22,59.771240234375,22L95.54248046875,22L59.771240234375,22Q49.771240234375,22,49.771240234375,32L49.771240234375,267Q49.771240234375,277,39.771240234375,277L4,277L4,277M4,273L14,277L4,281M85.54248046875,18L85.54248046875,26" fill="none" stroke="#D3D3D3" stroke-width="1"/>
    <text x="7" y="274" style="font-family: 'Open Sans', sans-serif; font-size: 14px; font-weight: normal; fill: transparent; white-space: pre;">*</text>
    <text x="84.53759765625" y="19" style="font-family: 'Open Sans', sans-serif; font-size: 14px; font-weight: normal; fill: transparent; white-space: pre;">1</text>
  </svg>
  <svg x="667.0029296875" y="244" transform="matrix(1, 0, 0, 1, 667.0029296875, 244.00000000000003)">
    <rect x="0" y="0" width="159.07666015625" height="32" fill="#316896"/>
    <text x="10" y="19.25" style="font-family: 'Open Sans', sans-serif; font-size: 13px; font-weight: bold; fill: rgb(255, 255, 255); white-space: pre;">addresses</text>
  </svg>
  <svg x="667.0029296875" y="276" transform="matrix(1, 0, 0, 1, 667.0029296875, 276.00000000000006)">
    <rect x="0" y="0" width="159.07666015625" height="32" fill="#F2F2F2"/>
    <text x="10" y="19.25" style="font-family: 'Open Sans', sans-serif; font-size: 13px; font-weight: bold; fill: rgb(111, 111, 111); white-space: pre;">id</text>
    <path transform="translate(26.19384765625,9.25)" fill="#6F6F6F" d="M 6.5625 0.9844 C 8.1935 0.9844 9.5156 2.3065 9.5156 3.9375 C 9.5156 5.5685 8.1935 6.8906 6.5625 6.8906 C 6.1735 6.8906 5.8022 6.8153 5.462 6.6786 L 4.5938 7.5469 H 3.9375 V 8.5313 H 2.9531 V 9.5156 H 0.9844 V 7.5469 L 3.736 4.7952 C 3.6518 4.5171 3.6092 4.2281 3.6094 3.9375 C 3.6094 2.3065 4.9315 0.9844 6.5625 0.9844 Z M 6.5625 0 C 4.388 0 2.625 1.7627 2.625 3.9375 C 2.625 4.1186 2.6373 4.2989 2.6619 4.4772 L 0.1441 6.995 C 0.0519 7.0873 0 7.2125 0 7.343 L 0 10.0078 C 0 10.2797 0.2204 10.5 0.4922 10.5 H 3.4453 C 3.7171 10.5 3.9375 10.2797 3.9375 10.0078 V 9.5156 H 4.4297 C 4.7015 9.5156 4.9219 9.2953 4.9219 9.0234 V 8.6133 L 5.7432 7.7895 C 6.011 7.8464 6.2848 7.875 6.5625 7.875 C 8.737 7.875 10.5 6.1123 10.5 3.9375 C 10.5 1.763 8.7373 0 6.5625 0 Z M 6.5625 2.9531 C 6.5625 3.4968 7.0032 3.9375 7.5469 3.9375 C 8.0905 3.9375 8.5313 3.4968 8.5313 2.9531 C 8.5313 2.4095 8.0905 1.9688 7.5469 1.9688 C 7.0032 1.9688 6.5625 2.4095 6.5625 2.9531 Z"/>
    <text x="102.3134765625" y="19.25" style="font-family: 'Open Sans', sans-serif; font-size: 13px; font-weight: bold; fill: rgb(153, 153, 153); white-space: pre;">integer</text>
  </svg>
  <svg x="667.0029296875" y="308" transform="matrix(1, 0, 0, 1, 667.0029296875, 308.00000000000006)">
    <rect x="0" y="0" width="159.07666015625" height="32" fill="#F2F2F2"/>
    <text x="10" y="19.25" style="font-family: 'Open Sans', sans-serif; font-size: 13px; fill: rgb(111, 111, 111); white-space: pre;">identifier</text>
    <text x="122.0673828125" y="19.25" style="font-family: 'Open Sans', sans-serif; font-size: 13px; fill: rgb(153, 153, 153); white-space: pre;">blob</text>
  </svg>
  <svg x="1001" y="68" transform="matrix(1, 0, 0, 1, 1001.0000000000001, 68)">
    <rect x="0" y="0" width="201.701171875" height="32" fill="#316896"/>
    <text x="10" y="19.25" style="font-family: 'Open Sans', sans-serif; font-size: 13px; font-weight: bold; fill: rgb(255, 255, 255); white-space: pre;">keypairs</text>
  </svg>
  <svg x="1001" y="100" transform="matrix(1, 0, 0, 1, 1001.0000000000001, 100)">
    <rect x="0" y="0" width="201.701171875" height="32" fill="#F2F2F2"/>
    <text x="10" y="19.25" style="font-family: 'Open Sans', sans-serif; font-size: 13px; font-weight: bold; fill: rgb(111, 111, 111); white-space: pre;">id</text>
    <path transform="translate(26.19384765625,9.25)" fill="#6F6F6F" d="M 6.5625 0.9844 C 8.1935 0.9844 9.5156 2.3065 9.5156 3.9375 C 9.5156 5.5685 8.1935 6.8906 6.5625 6.8906 C 6.1735 6.8906 5.8022 6.8153 5.462 6.6786 L 4.5938 7.5469 H 3.9375 V 8.5313 H 2.9531 V 9.5156 H 0.9844 V 7.5469 L 3.736 4.7952 C 3.6518 4.5171 3.6092 4.2281 3.6094 3.9375 C 3.6094 2.3065 4.9315 0.9844 6.5625 0.9844 Z M 6.5625 0 C 4.388 0 2.625 1.7627 2.625 3.9375 C 2.625 4.1186 2.6373 4.2989 2.6619 4.4772 L 0.1441 6.995 C 0.0519 7.0873 0 7.2125 0 7.343 L 0 10.0078 C 0 10.2797 0.2204 10.5 0.4922 10.5 H 3.4453 C 3.7171 10.5 3.9375 10.2797 3.9375 10.0078 V 9.5156 H 4.4297 C 4.7015 9.5156 4.9219 9.2953 4.9219 9.0234 V 8.6133 L 5.7432 7.7895 C 6.011 7.8464 6.2848 7.875 6.5625 7.875 C 8.737 7.875 10.5 6.1123 10.5 3.9375 C 10.5 1.763 8.7373 0 6.5625 0 Z M 6.5625 2.9531 C 6.5625 3.4968 7.0032 3.9375 7.5469 3.9375 C 8.0905 3.9375 8.5313 3.4968 8.5313 2.9531 C 8.5313 2.4095 8.0905 1.9688 7.5469 1.9688 C 7.0032 1.9688 6.5625 2.4095 6.5625 2.9531 Z"/>
    <text x="144.93798828125" y="19.25" style="font-family: 'Open Sans', sans-serif; font-size: 13px; font-weight: bold; fill: rgb(153, 153, 153); white-space: pre;">integer</text>
  </svg>
  <svg x="1001" y="132" transform="matrix(1, 0, 0, 1, 1001.0000000000001, 132)">
    <rect x="0" y="0" width="201.701171875" height="32" fill="#F2F2F2"/>
    <text x="10" y="19.25" style="font-family: 'Open Sans', sans-serif; font-size: 13px; fill: rgb(111, 111, 111); white-space: pre;">for_identifier</text>
    <text x="148.841796875" y="19.25" style="font-family: 'Open Sans', sans-serif; font-size: 13px; fill: rgb(153, 153, 153); white-space: pre;">integer</text>
  </svg>
  <svg x="1001" y="164" transform="matrix(1, 0, 0, 1, 1001.0000000000001, 164)">
    <rect x="0" y="0" width="201.701171875" height="32" fill="#F2F2F2"/>
    <text x="10" y="19.25" style="font-family: 'Open Sans', sans-serif; font-size: 13px; fill: rgb(111, 111, 111); white-space: pre;">role</text>
    <text x="148.841796875" y="19.25" style="font-family: 'Open Sans', sans-serif; font-size: 13px; fill: rgb(153, 153, 153); white-space: pre;">integer</text>
  </svg>
  <svg x="1001" y="196" transform="matrix(1, 0, 0, 1, 1001.0000000000001, 196)">
    <rect x="0" y="0" width="201.701171875" height="32" fill="#F2F2F2"/>
    <text x="10" y="19.25" style="font-family: 'Open Sans', sans-serif; font-size: 13px; fill: rgb(111, 111, 111); white-space: pre;">keypair</text>
    <text x="164.69189453125" y="19.25" style="font-family: 'Open Sans', sans-serif; font-size: 13px; fill: rgb(153, 153, 153); white-space: pre;">blob</text>
  </svg>
  <svg x="1001" y="228" transform="matrix(1, 0, 0, 1, 1001.0000000000001, 228.00000000000003)">
    <rect x="0" y="0" width="201.701171875" height="32" fill="#F2F2F2"/>
    <text x="10" y="19.25" style="font-family: 'Open Sans', sans-serif; font-size: 13px; fill: rgb(111, 111, 111); white-space: pre;">olm_account</text>
    <text x="164.69189453125" y="19.25" style="font-family: 'Open Sans', sans-serif; font-size: 13px; fill: rgb(153, 153, 153); white-space: pre;">blob</text>
  </svg>
  <svg x="663.1552734375" y="383" transform="matrix(1, 0, 0, 1, 663.1552734375, 383.00000000000006)">
    <rect x="0" y="0" width="199.30810546875" height="32" fill="#316896"/>
    <text x="10" y="19.25" style="font-family: 'Open Sans', sans-serif; font-size: 13px; font-weight: bold; fill: rgb(255, 255, 255); white-space: pre;">operations</text>
  </svg>
  <svg x="663.1552734375" y="415" transform="matrix(1, 0, 0, 1, 663.1552734375, 415.00000000000006)">
    <rect x="0" y="0" width="199.30810546875" height="32" fill="#F2F2F2"/>
    <text x="10" y="19.25" style="font-family: 'Open Sans', sans-serif; font-size: 13px; font-weight: bold; fill: rgb(111, 111, 111); white-space: pre;">id</text>
    <path transform="translate(26.19384765625,9.25)" fill="#6F6F6F" d="M 6.5625 0.9844 C 8.1935 0.9844 9.5156 2.3065 9.5156 3.9375 C 9.5156 5.5685 8.1935 6.8906 6.5625 6.8906 C 6.1735 6.8906 5.8022 6.8153 5.462 6.6786 L 4.5938 7.5469 H 3.9375 V 8.5313 H 2.9531 V 9.5156 H 0.9844 V 7.5469 L 3.736 4.7952 C 3.6518 4.5171 3.6092 4.2281 3.6094 3.9375 C 3.6094 2.3065 4.9315 0.9844 6.5625 0.9844 Z M 6.5625 0 C 4.388 0 2.625 1.7627 2.625 3.9375 C 2.625 4.1186 2.6373 4.2989 2.6619 4.4772 L 0.1441 6.995 C 0.0519 7.0873 0 7.2125 0 7.343 L 0 10.0078 C 0 10.2797 0.2204 10.5 0.4922 10.5 H 3.4453 C 3.7171 10.5 3.9375 10.2797 3.9375 10.0078 V 9.5156 H 4.4297 C 4.7015 9.5156 4.9219 9.2953 4.9219 9.0234 V 8.6133 L 5.7432 7.7895 C 6.011 7.8464 6.2848 7.875 6.5625 7.875 C 8.737 7.875 10.5 6.1123 10.5 3.9375 C 10.5 1.763 8.7373 0 6.5625 0 Z M 6.5625 2.9531 C 6.5625 3.4968 7.0032 3.9375 7.5469 3.9375 C 8.0905 3.9375 8.5313 3.4968 8.5313 2.9531 C 8.5313 2.4095 8.0905 1.9688 7.5469 1.9688 C 7.0032 1.9688 6.5625 2.4095 6.5625 2.9531 Z"/>
    <text x="142.544921875" y="19.25" style="font-family: 'Open Sans', sans-serif; font-size: 13px; font-weight: bold; fill: rgb(153, 153, 153); white-space: pre;">integer</text>
  </svg>
  <svg x="663.1552734375" y="447" transform="matrix(1, 0, 0, 1, 663.1552734375, 447.00000000000006)">
    <rect x="0" y="0" width="199.30810546875" height="32" fill="#F2F2F2"/>
    <text x="10" y="19.25" style="font-family: 'Open Sans', sans-serif; font-size: 13px; fill: rgb(111, 111, 111); white-space: pre;">on_identifier</text>
    <text x="146.44873046875" y="19.25" style="font-family: 'Open Sans', sans-serif; font-size: 13px; fill: rgb(153, 153, 153); white-space: pre;">integer</text>
  </svg>
  <svg x="663.1552734375" y="479" transform="matrix(1, 0, 0, 1, 663.1552734375, 479.00000000000006)">
    <rect x="0" y="0" width="199.30810546875" height="32" fill="#F2F2F2"/>
    <text x="10" y="19.25" style="font-family: 'Open Sans', sans-serif; font-size: 13px; fill: rgb(111, 111, 111); white-space: pre;">sequence</text>
    <text x="146.44873046875" y="19.25" style="font-family: 'Open Sans', sans-serif; font-size: 13px; fill: rgb(153, 153, 153); white-space: pre;">integer</text>
  </svg>
  <svg x="663.1552734375" y="511" transform="matrix(1, 0, 0, 1, 663.1552734375, 511)">
    <rect x="0" y="0" width="199.30810546875" height="32" fill="#F2F2F2"/>
    <text x="10" y="19.25" style="font-family: 'Open Sans', sans-serif; font-size: 13px; fill: rgb(111, 111, 111); white-space: pre;">operation</text>
    <text x="162.298828125" y="19.25" style="font-family: 'Open Sans', sans-serif; font-size: 13px; fill: rgb(153, 153, 153); white-space: pre;">blob</text>
  </svg>
  <svg x="363.46337890625" y="435" transform="matrix(1, 0, 0, 1, 363.46337890625, 435.00000000000006)">
    <rect x="0" y="0" width="211.9970703125" height="32" fill="#316896"/>
    <text x="10" y="19.25" style="font-family: 'Open Sans', sans-serif; font-size: 13px; font-weight: bold; fill: rgb(255, 255, 255); white-space: pre;">metrics</text>
  </svg>
  <svg x="363.46337890625" y="467" transform="matrix(1, 0, 0, 1, 363.46337890625, 467.00000000000006)">
    <rect x="0" y="0" width="211.9970703125" height="32" fill="#F2F2F2"/>
    <text x="10" y="19.25" style="font-family: 'Open Sans', sans-serif; font-size: 13px; font-weight: bold; fill: rgb(111, 111, 111); white-space: pre;">id</text>
    <path transform="translate(26.19384765625,9.25)" fill="#6F6F6F" d="M 6.5625 0.9844 C 8.1935 0.9844 9.5156 2.3065 9.5156 3.9375 C 9.5156 5.5685 8.1935 6.8906 6.5625 6.8906 C 6.1735 6.8906 5.8022 6.8153 5.462 6.6786 L 4.5938 7.5469 H 3.9375 V 8.5313 H 2.9531 V 9.5156 H 0.9844 V 7.5469 L 3.736 4.7952 C 3.6518 4.5171 3.6092 4.2281 3.6094 3.9375 C 3.6094 2.3065 4.9315 0.9844 6.5625 0.9844 Z M 6.5625 0 C 4.388 0 2.625 1.7627 2.625 3.9375 C 2.625 4.1186 2.6373 4.2989 2.6619 4.4772 L 0.1441 6.995 C 0.0519 7.0873 0 7.2125 0 7.343 L 0 10.0078 C 0 10.2797 0.2204 10.5 0.4922 10.5 H 3.4453 C 3.7171 10.5 3.9375 10.2797 3.9375 10.0078 V 9.5156 H 4.4297 C 4.7015 9.5156 4.9219 9.2953 4.9219 9.0234 V 8.6133 L 5.7432 7.7895 C 6.011 7.8464 6.2848 7.875 6.5625 7.875 C 8.737 7.875 10.5 6.1123 10.5 3.9375 C 10.5 1.763 8.7373 0 6.5625 0 Z M 6.5625 2.9531 C 6.5625 3.4968 7.0032 3.9375 7.5469 3.9375 C 8.0905 3.9375 8.5313 3.4968 8.5313 2.9531 C 8.5313 2.4095 8.0905 1.9688 7.5469 1.9688 C 7.0032 1.9688 6.5625 2.4095 6.5625 2.9531 Z"/>
    <text x="155.23388671875" y="19.25" style="font-family: 'Open Sans', sans-serif; font-size: 13px; font-weight: bold; fill: rgb(153, 153, 153); white-space: pre;">integer</text>
  </svg>
  <svg x="363.46337890625" y="499" transform="matrix(1, 0, 0, 1, 363.46337890625, 499)">
    <rect x="0" y="0" width="211.9970703125" height="32" fill="#F2F2F2"/>
    <text x="10" y="19.25" style="font-family: 'Open Sans', sans-serif; font-size: 13px; fill: rgb(111, 111, 111); white-space: pre;">as_identifier</text>
    <text x="159.1376953125" y="19.25" style="font-family: 'Open Sans', sans-serif; font-size: 13px; fill: rgb(153, 153, 153); white-space: pre;">integer</text>
  </svg>
  <svg x="363.46337890625" y="531" transform="matrix(1, 0, 0, 1, 363.46337890625, 531)">
    <rect x="0" y="0" width="211.9970703125" height="32" fill="#F2F2F2"/>
    <text x="10" y="19.25" style="font-family: 'Open Sans', sans-serif; font-size: 13px; fill: rgb(111, 111, 111); white-space: pre;">with_identifier</text>
    <text x="159.1376953125" y="19.25" style="font-family: 'Open Sans', sans-serif; font-size: 13px; fill: rgb(153, 153, 153); white-space: pre;">integer</text>
  </svg>
  <svg x="363.46337890625" y="563" transform="matrix(1, 0, 0, 1, 363.46337890625, 563)">
    <rect x="0" y="0" width="211.9970703125" height="32" fill="#F2F2F2"/>
    <text x="10" y="19.25" style="font-family: 'Open Sans', sans-serif; font-size: 13px; fill: rgb(111, 111, 111); white-space: pre;">sequence_tx</text>
    <text x="159.1376953125" y="19.25" style="font-family: 'Open Sans', sans-serif; font-size: 13px; fill: rgb(153, 153, 153); white-space: pre;">integer</text>
  </svg>
  <svg x="363.46337890625" y="595" transform="matrix(1, 0, 0, 1, 363.46337890625, 595)">
    <rect x="0" y="0" width="211.9970703125" height="32" fill="#F2F2F2"/>
    <text x="10" y="19.25" style="font-family: 'Open Sans', sans-serif; font-size: 13px; fill: rgb(111, 111, 111); white-space: pre;">sequence_rx</text>
    <text x="159.1376953125" y="19.25" style="font-family: 'Open Sans', sans-serif; font-size: 13px; fill: rgb(153, 153, 153); white-space: pre;">integer</text>
  </svg>
  <svg x="270.0029296875" y="180" transform="matrix(1, 0, 0, 1, 270.0029296875, 180)">
    <rect x="0" y="0" width="211.9970703125" height="32" fill="#316896"/>
    <text x="10" y="19.25" style="font-family: 'Open Sans', sans-serif; font-size: 13px; font-weight: bold; fill: rgb(255, 255, 255); white-space: pre;">connections</text>
  </svg>
  <svg x="270.0029296875" y="212" transform="matrix(1, 0, 0, 1, 270.0029296875, 212)">
    <rect x="0" y="0" width="211.9970703125" height="32" fill="#F2F2F2"/>
    <text x="10" y="19.25" style="font-family: 'Open Sans', sans-serif; font-size: 13px; font-weight: bold; fill: rgb(111, 111, 111); white-space: pre;">id</text>
    <path transform="translate(26.19384765625,9.25)" fill="#6F6F6F" d="M 6.5625 0.9844 C 8.1935 0.9844 9.5156 2.3065 9.5156 3.9375 C 9.5156 5.5685 8.1935 6.8906 6.5625 6.8906 C 6.1735 6.8906 5.8022 6.8153 5.462 6.6786 L 4.5938 7.5469 H 3.9375 V 8.5313 H 2.9531 V 9.5156 H 0.9844 V 7.5469 L 3.736 4.7952 C 3.6518 4.5171 3.6092 4.2281 3.6094 3.9375 C 3.6094 2.3065 4.9315 0.9844 6.5625 0.9844 Z M 6.5625 0 C 4.388 0 2.625 1.7627 2.625 3.9375 C 2.625 4.1186 2.6373 4.2989 2.6619 4.4772 L 0.1441 6.995 C 0.0519 7.0873 0 7.2125 0 7.343 L 0 10.0078 C 0 10.2797 0.2204 10.5 0.4922 10.5 H 3.4453 C 3.7171 10.5 3.9375 10.2797 3.9375 10.0078 V 9.5156 H 4.4297 C 4.7015 9.5156 4.9219 9.2953 4.9219 9.0234 V 8.6133 L 5.7432 7.7895 C 6.011 7.8464 6.2848 7.875 6.5625 7.875 C 8.737 7.875 10.5 6.1123 10.5 3.9375 C 10.5 1.763 8.7373 0 6.5625 0 Z M 6.5625 2.9531 C 6.5625 3.4968 7.0032 3.9375 7.5469 3.9375 C 8.0905 3.9375 8.5313 3.4968 8.5313 2.9531 C 8.5313 2.4095 8.0905 1.9688 7.5469 1.9688 C 7.0032 1.9688 6.5625 2.4095 6.5625 2.9531 Z"/>
    <text x="155.23388671875" y="19.25" style="font-family: 'Open Sans', sans-serif; font-size: 13px; font-weight: bold; fill: rgb(153, 153, 153); white-space: pre;">integer</text>
  </svg>
  <svg x="270.0029296875" y="244" transform="matrix(1, 0, 0, 1, 270.0029296875, 244.00000000000003)">
    <rect x="0" y="0" width="211.9970703125" height="32" fill="#F2F2F2"/>
    <text x="10" y="19.25" style="font-family: 'Open Sans', sans-serif; font-size: 13px; fill: rgb(111, 111, 111); white-space: pre;">as_identifier</text>
    <text x="159.1376953125" y="19.25" style="font-family: 'Open Sans', sans-serif; font-size: 13px; fill: rgb(153, 153, 153); white-space: pre;">integer</text>
  </svg>
  <svg x="270.0029296875" y="276" transform="matrix(1, 0, 0, 1, 270.0029296875, 276.00000000000006)">
    <rect x="0" y="0" width="211.9970703125" height="32" fill="#F2F2F2"/>
    <text x="10" y="19.25" style="font-family: 'Open Sans', sans-serif; font-size: 13px; fill: rgb(111, 111, 111); white-space: pre;">via_identifier</text>
    <text x="159.1376953125" y="19.25" style="font-family: 'Open Sans', sans-serif; font-size: 13px; fill: rgb(153, 153, 153); white-space: pre;">integer</text>
  </svg>
  <svg x="270.0029296875" y="308" transform="matrix(1, 0, 0, 1, 270.0029296875, 308.00000000000006)">
    <rect x="0" y="0" width="211.9970703125" height="32" fill="#F2F2F2"/>
    <text x="10" y="19.25" style="font-family: 'Open Sans', sans-serif; font-size: 13px; fill: rgb(111, 111, 111); white-space: pre;">with_identifier</text>
    <text x="159.1376953125" y="19.25" style="font-family: 'Open Sans', sans-serif; font-size: 13px; fill: rgb(153, 153, 153); white-space: pre;">integer</text>
  </svg>
  <svg x="270.0029296875" y="340" transform="matrix(1, 0, 0, 1, 270.0029296875, 340.00000000000006)">
    <rect x="0" y="0" width="211.9970703125" height="32" fill="#F2F2F2"/>
    <text x="10" y="19.25" style="font-family: 'Open Sans', sans-serif; font-size: 13px; fill: rgb(111, 111, 111); white-space: pre;">connected_on</text>
    <text x="159.1376953125" y="19.25" style="font-family: 'Open Sans', sans-serif; font-size: 13px; fill: rgb(153, 153, 153); white-space: pre;">integer</text>
  </svg>
  <svg x="1001" y="383" transform="matrix(1, 0, 0, 1, 1001.0000000000001, 383.00000000000006)">
    <rect x="0" y="0" width="211.9970703125" height="32" fill="#316896"/>
    <text x="10" y="19.25" style="font-family: 'Open Sans', sans-serif; font-size: 13px; font-weight: bold; fill: rgb(255, 255, 255); white-space: pre;">sessions</text>
  </svg>
  <svg x="1001" y="415" transform="matrix(1, 0, 0, 1, 1001.0000000000001, 415.00000000000006)">
    <rect x="0" y="0" width="211.9970703125" height="32" fill="#F2F2F2"/>
    <text x="10" y="19.25" style="font-family: 'Open Sans', sans-serif; font-size: 13px; font-weight: bold; fill: rgb(111, 111, 111); white-space: pre;">id</text>
    <path transform="translate(26.19384765625,9.25)" fill="#6F6F6F" d="M 6.5625 0.9844 C 8.1935 0.9844 9.5156 2.3065 9.5156 3.9375 C 9.5156 5.5685 8.1935 6.8906 6.5625 6.8906 C 6.1735 6.8906 5.8022 6.8153 5.462 6.6786 L 4.5938 7.5469 H 3.9375 V 8.5313 H 2.9531 V 9.5156 H 0.9844 V 7.5469 L 3.736 4.7952 C 3.6518 4.5171 3.6092 4.2281 3.6094 3.9375 C 3.6094 2.3065 4.9315 0.9844 6.5625 0.9844 Z M 6.5625 0 C 4.388 0 2.625 1.7627 2.625 3.9375 C 2.625 4.1186 2.6373 4.2989 2.6619 4.4772 L 0.1441 6.995 C 0.0519 7.0873 0 7.2125 0 7.343 L 0 10.0078 C 0 10.2797 0.2204 10.5 0.4922 10.5 H 3.4453 C 3.7171 10.5 3.9375 10.2797 3.9375 10.0078 V 9.5156 H 4.4297 C 4.7015 9.5156 4.9219 9.2953 4.9219 9.0234 V 8.6133 L 5.7432 7.7895 C 6.011 7.8464 6.2848 7.875 6.5625 7.875 C 8.737 7.875 10.5 6.1123 10.5 3.9375 C 10.5 1.763 8.7373 0 6.5625 0 Z M 6.5625 2.9531 C 6.5625 3.4968 7.0032 3.9375 7.5469 3.9375 C 8.0905 3.9375 8.5313 3.4968 8.5313 2.9531 C 8.5313 2.4095 8.0905 1.9688 7.5469 1.9688 C 7.0032 1.9688 6.5625 2.4095 6.5625 2.9531 Z"/>
    <text x="155.23388671875" y="19.25" style="font-family: 'Open Sans', sans-serif; font-size: 13px; font-weight: bold; fill: rgb(153, 153, 153); white-space: pre;">integer</text>
  </svg>
  <svg x="1001" y="447" transform="matrix(1, 0, 0, 1, 1001.0000000000001, 447.00000000000006)">
    <rect x="0" y="0" width="211.9970703125" height="32" fill="#F2F2F2"/>
    <text x="10" y="19.25" style="font-family: 'Open Sans', sans-serif; font-size: 13px; fill: rgb(111, 111, 111); white-space: pre;">as_identifier</text>
    <text x="159.1376953125" y="19.25" style="font-family: 'Open Sans', sans-serif; font-size: 13px; fill: rgb(153, 153, 153); white-space: pre;">integer</text>
  </svg>
  <svg x="1001" y="479" transform="matrix(1, 0, 0, 1, 1001.0000000000001, 479.00000000000006)">
    <rect x="0" y="0" width="211.9970703125" height="32" fill="#F2F2F2"/>
    <text x="10" y="19.25" style="font-family: 'Open Sans', sans-serif; font-size: 13px; fill: rgb(111, 111, 111); white-space: pre;">with_identifier</text>
    <text x="159.1376953125" y="19.25" style="font-family: 'Open Sans', sans-serif; font-size: 13px; fill: rgb(153, 153, 153); white-space: pre;">integer</text>
  </svg>
  <svg x="1001" y="511" transform="matrix(1, 0, 0, 1, 1001.0000000000001, 511)">
    <rect x="0" y="0" width="211.9970703125" height="32" fill="#F2F2F2"/>
    <text x="10" y="19.25" style="font-family: 'Open Sans', sans-serif; font-size: 13px; fill: rgb(111, 111, 111); white-space: pre;">sequence_rx</text>
    <text x="159.1376953125" y="19.25" style="font-family: 'Open Sans', sans-serif; font-size: 13px; fill: rgb(153, 153, 153); white-space: pre;">integer</text>
  </svg>
  <svg x="1001" y="543" transform="matrix(1, 0, 0, 1, 1001.0000000000001, 543)">
    <rect x="0" y="0" width="211.9970703125" height="32" fill="#F2F2F2"/>
    <text x="10" y="19.25" style="font-family: 'Open Sans', sans-serif; font-size: 13px; fill: rgb(111, 111, 111); white-space: pre;">sequence_tx</text>
    <text x="159.1376953125" y="19.25" style="font-family: 'Open Sans', sans-serif; font-size: 13px; fill: rgb(153, 153, 153); white-space: pre;">integer</text>
  </svg>
  <svg x="1001" y="575" transform="matrix(1, 0, 0, 1, 1001.0000000000001, 575)">
    <rect x="0" y="0" width="211.9970703125" height="32" fill="#F2F2F2"/>
    <text x="10" y="19.25" style="font-family: 'Open Sans', sans-serif; font-size: 13px; fill: rgb(111, 111, 111); white-space: pre;">olm_session</text>
    <text x="174.98779296875" y="19.25" style="font-family: 'Open Sans', sans-serif; font-size: 13px; fill: rgb(153, 153, 153); white-space: pre;">blob</text>
  </svg>
  <svg x="647.9970703125" y="0" transform="matrix(1, 0, 0, 1, 647.9970703125, 3.552713678800501e-15)">
    <rect x="0" y="0" width="214.46630859375" height="32" fill="#316896"/>
    <text x="10" y="19.25" style="font-family: 'Open Sans', sans-serif; font-size: 13px; font-weight: bold; fill: rgb(255, 255, 255); white-space: pre;">tokens</text>
  </svg>
  <svg x="647.9970703125" y="32" transform="matrix(1, 0, 0, 1, 647.9970703125, 32)">
    <rect x="0" y="0" width="214.46630859375" height="32" fill="#F2F2F2"/>
    <text x="10" y="19.25" style="font-family: 'Open Sans', sans-serif; font-size: 13px; font-weight: bold; fill: rgb(111, 111, 111); white-space: pre;">id</text>
    <path transform="translate(26.19384765625,9.25)" fill="#6F6F6F" d="M 6.5625 0.9844 C 8.1935 0.9844 9.5156 2.3065 9.5156 3.9375 C 9.5156 5.5685 8.1935 6.8906 6.5625 6.8906 C 6.1735 6.8906 5.8022 6.8153 5.462 6.6786 L 4.5938 7.5469 H 3.9375 V 8.5313 H 2.9531 V 9.5156 H 0.9844 V 7.5469 L 3.736 4.7952 C 3.6518 4.5171 3.6092 4.2281 3.6094 3.9375 C 3.6094 2.3065 4.9315 0.9844 6.5625 0.9844 Z M 6.5625 0 C 4.388 0 2.625 1.7627 2.625 3.9375 C 2.625 4.1186 2.6373 4.2989 2.6619 4.4772 L 0.1441 6.995 C 0.0519 7.0873 0 7.2125 0 7.343 L 0 10.0078 C 0 10.2797 0.2204 10.5 0.4922 10.5 H 3.4453 C 3.7171 10.5 3.9375 10.2797 3.9375 10.0078 V 9.5156 H 4.4297 C 4.7015 9.5156 4.9219 9.2953 4.9219 9.0234 V 8.6133 L 5.7432 7.7895 C 6.011 7.8464 6.2848 7.875 6.5625 7.875 C 8.737 7.875 10.5 6.1123 10.5 3.9375 C 10.5 1.763 8.7373 0 6.5625 0 Z M 6.5625 2.9531 C 6.5625 3.4968 7.0032 3.9375 7.5469 3.9375 C 8.0905 3.9375 8.5313 3.4968 8.5313 2.9531 C 8.5313 2.4095 8.0905 1.9688 7.5469 1.9688 C 7.0032 1.9688 6.5625 2.4095 6.5625 2.9531 Z"/>
    <text x="157.703125" y="19.25" style="font-family: 'Open Sans', sans-serif; font-size: 13px; font-weight: bold; fill: rgb(153, 153, 153); white-space: pre;">integer</text>
  </svg>
  <svg x="647.9970703125" y="64" transform="matrix(1, 0, 0, 1, 647.9970703125, 64)">
    <rect x="0" y="0" width="214.46630859375" height="32" fill="#F2F2F2"/>
    <text x="10" y="19.25" style="font-family: 'Open Sans', sans-serif; font-size: 13px; fill: rgb(111, 111, 111); white-space: pre;">from_identifier</text>
    <text x="161.60693359375" y="19.25" style="font-family: 'Open Sans', sans-serif; font-size: 13px; fill: rgb(153, 153, 153); white-space: pre;">integer</text>
  </svg>
  <svg x="647.9970703125" y="96" transform="matrix(1, 0, 0, 1, 647.9970703125, 96)">
    <rect x="0" y="0" width="214.46630859375" height="32" fill="#F2F2F2"/>
    <text x="10" y="19.25" style="font-family: 'Open Sans', sans-serif; font-size: 13px; fill: rgb(111, 111, 111); white-space: pre;">for_identifier</text>
    <text x="161.60693359375" y="19.25" style="font-family: 'Open Sans', sans-serif; font-size: 13px; fill: rgb(153, 153, 153); white-space: pre;">integer</text>
  </svg>
  <svg x="647.9970703125" y="128" transform="matrix(1, 0, 0, 1, 647.9970703125, 128)">
    <rect x="0" y="0" width="214.46630859375" height="32" fill="#F2F2F2"/>
    <text x="10" y="19.25" style="font-family: 'Open Sans', sans-serif; font-size: 13px; fill: rgb(111, 111, 111); white-space: pre;">purpose</text>
    <text x="161.60693359375" y="19.25" style="font-family: 'Open Sans', sans-serif; font-size: 13px; fill: rgb(153, 153, 153); white-space: pre;">integer</text>
  </svg>
  <svg x="647.9970703125" y="160" transform="matrix(1, 0, 0, 1, 647.9970703125, 160)">
    <rect x="0" y="0" width="214.46630859375" height="32" fill="#F2F2F2"/>
    <text x="10" y="19.25" style="font-family: 'Open Sans', sans-serif; font-size: 13px; fill: rgb(111, 111, 111); white-space: pre;">token</text>
    <text x="177.45703125" y="19.25" style="font-family: 'Open Sans', sans-serif; font-size: 13px; fill: rgb(153, 153, 153); white-space: pre;">blob</text>
  </svg>
  <svg x="1236.46337890625" y="212" transform="matrix(1, 0, 0, 1, 1236.4633789062502, 212)">
    <rect x="0" y="0" width="221.02978515625" height="32" fill="#316896"/>
    <text x="10" y="19.25" style="font-family: 'Open Sans', sans-serif; font-size: 13px; font-weight: bold; fill: rgb(255, 255, 255); white-space: pre;">credentials</text>
  </svg>
  <svg x="1236.46337890625" y="244" transform="matrix(1, 0, 0, 1, 1236.4633789062502, 244.00000000000003)">
    <rect x="0" y="0" width="221.02978515625" height="32" fill="#F2F2F2"/>
    <text x="10" y="19.25" style="font-family: 'Open Sans', sans-serif; font-size: 13px; font-weight: bold; fill: rgb(111, 111, 111); white-space: pre;">id</text>
    <path transform="translate(26.19384765625,9.25)" fill="#6F6F6F" d="M 6.5625 0.9844 C 8.1935 0.9844 9.5156 2.3065 9.5156 3.9375 C 9.5156 5.5685 8.1935 6.8906 6.5625 6.8906 C 6.1735 6.8906 5.8022 6.8153 5.462 6.6786 L 4.5938 7.5469 H 3.9375 V 8.5313 H 2.9531 V 9.5156 H 0.9844 V 7.5469 L 3.736 4.7952 C 3.6518 4.5171 3.6092 4.2281 3.6094 3.9375 C 3.6094 2.3065 4.9315 0.9844 6.5625 0.9844 Z M 6.5625 0 C 4.388 0 2.625 1.7627 2.625 3.9375 C 2.625 4.1186 2.6373 4.2989 2.6619 4.4772 L 0.1441 6.995 C 0.0519 7.0873 0 7.2125 0 7.343 L 0 10.0078 C 0 10.2797 0.2204 10.5 0.4922 10.5 H 3.4453 C 3.7171 10.5 3.9375 10.2797 3.9375 10.0078 V 9.5156 H 4.4297 C 4.7015 9.5156 4.9219 9.2953 4.9219 9.0234 V 8.6133 L 5.7432 7.7895 C 6.011 7.8464 6.2848 7.875 6.5625 7.875 C 8.737 7.875 10.5 6.1123 10.5 3.9375 C 10.5 1.763 8.7373 0 6.5625 0 Z M 6.5625 2.9531 C 6.5625 3.4968 7.0032 3.9375 7.5469 3.9375 C 8.0905 3.9375 8.5313 3.4968 8.5313 2.9531 C 8.5313 2.4095 8.0905 1.9688 7.5469 1.9688 C 7.0032 1.9688 6.5625 2.4095 6.5625 2.9531 Z"/>
    <text x="164.2666015625" y="19.25" style="font-family: 'Open Sans', sans-serif; font-size: 13px; font-weight: bold; fill: rgb(153, 153, 153); white-space: pre;">integer</text>
  </svg>
  <svg x="1236.46337890625" y="276" transform="matrix(1, 0, 0, 1, 1236.4633789062502, 276.00000000000006)">
    <rect x="0" y="0" width="221.02978515625" height="32" fill="#F2F2F2"/>
    <text x="10" y="19.25" style="font-family: 'Open Sans', sans-serif; font-size: 13px; fill: rgb(111, 111, 111); white-space: pre;">from_identifier</text>
    <text x="168.17041015625" y="19.25" style="font-family: 'Open Sans', sans-serif; font-size: 13px; fill: rgb(153, 153, 153); white-space: pre;">integer</text>
  </svg>
  <svg x="1236.46337890625" y="308" transform="matrix(1, 0, 0, 1, 1236.4633789062502, 308.00000000000006)">
    <rect x="0" y="0" width="221.02978515625" height="32" fill="#F2F2F2"/>
    <text x="10" y="19.25" style="font-family: 'Open Sans', sans-serif; font-size: 13px; fill: rgb(111, 111, 111); white-space: pre;">about_identifier</text>
    <text x="168.17041015625" y="19.25" style="font-family: 'Open Sans', sans-serif; font-size: 13px; fill: rgb(153, 153, 153); white-space: pre;">integer</text>
  </svg>
  <svg x="1236.46337890625" y="340" transform="matrix(1, 0, 0, 1, 1236.4633789062502, 340.00000000000006)">
    <rect x="0" y="0" width="221.02978515625" height="32" fill="#F2F2F2"/>
    <text x="10" y="19.25" style="font-family: 'Open Sans', sans-serif; font-size: 13px; fill: rgb(111, 111, 111); white-space: pre;">kind</text>
    <text x="184.0205078125" y="19.25" style="font-family: 'Open Sans', sans-serif; font-size: 13px; fill: rgb(153, 153, 153); white-space: pre;">blob</text>
  </svg>
  <svg x="1236.46337890625" y="372" transform="matrix(1, 0, 0, 1, 1236.4633789062502, 372.00000000000006)">
    <rect x="0" y="0" width="221.02978515625" height="32" fill="#F2F2F2"/>
    <text x="10" y="19.25" style="font-family: 'Open Sans', sans-serif; font-size: 13px; fill: rgb(111, 111, 111); white-space: pre;">credential</text>
    <text x="184.0205078125" y="19.25" style="font-family: 'Open Sans', sans-serif; font-size: 13px; fill: rgb(153, 153, 153); white-space: pre;">blob</text>
  </svg>
  <svg x="0" y="16" transform="matrix(1, 0, 0, 1, 0, 16.000000000000004)">
    <rect x="0" y="0" width="189.15185546875" height="32" fill="#316896"/>
    <text x="10" y="19.25" style="font-family: 'Open Sans', sans-serif; font-size: 13px; font-weight: bold; fill: rgb(255, 255, 255); white-space: pre;">inbox</text>
  </svg>
  <svg x="0" y="48" transform="matrix(1, 0, 0, 1, 0, 48)">
    <rect x="0" y="0" width="189.15185546875" height="32" fill="#F2F2F2"/>
    <text x="10" y="19.25" style="font-family: 'Open Sans', sans-serif; font-size: 13px; font-weight: bold; fill: rgb(111, 111, 111); white-space: pre;">id</text>
    <path transform="translate(26.19384765625,9.25)" fill="#6F6F6F" d="M 6.5625 0.9844 C 8.1935 0.9844 9.5156 2.3065 9.5156 3.9375 C 9.5156 5.5685 8.1935 6.8906 6.5625 6.8906 C 6.1735 6.8906 5.8022 6.8153 5.462 6.6786 L 4.5938 7.5469 H 3.9375 V 8.5313 H 2.9531 V 9.5156 H 0.9844 V 7.5469 L 3.736 4.7952 C 3.6518 4.5171 3.6092 4.2281 3.6094 3.9375 C 3.6094 2.3065 4.9315 0.9844 6.5625 0.9844 Z M 6.5625 0 C 4.388 0 2.625 1.7627 2.625 3.9375 C 2.625 4.1186 2.6373 4.2989 2.6619 4.4772 L 0.1441 6.995 C 0.0519 7.0873 0 7.2125 0 7.343 L 0 10.0078 C 0 10.2797 0.2204 10.5 0.4922 10.5 H 3.4453 C 3.7171 10.5 3.9375 10.2797 3.9375 10.0078 V 9.5156 H 4.4297 C 4.7015 9.5156 4.9219 9.2953 4.9219 9.0234 V 8.6133 L 5.7432 7.7895 C 6.011 7.8464 6.2848 7.875 6.5625 7.875 C 8.737 7.875 10.5 6.1123 10.5 3.9375 C 10.5 1.763 8.7373 0 6.5625 0 Z M 6.5625 2.9531 C 6.5625 3.4968 7.0032 3.9375 7.5469 3.9375 C 8.0905 3.9375 8.5313 3.4968 8.5313 2.9531 C 8.5313 2.4095 8.0905 1.9688 7.5469 1.9688 C 7.0032 1.9688 6.5625 2.4095 6.5625 2.9531 Z"/>
    <text x="132.388671875" y="19.25" style="font-family: 'Open Sans', sans-serif; font-size: 13px; font-weight: bold; fill: rgb(153, 153, 153); white-space: pre;">integer</text>
  </svg>
  <svg x="0" y="80" transform="matrix(1, 0, 0, 1, 0, 80)">
    <rect x="0" y="0" width="189.15185546875" height="32" fill="#F2F2F2"/>
    <text x="10" y="19.25" style="font-family: 'Open Sans', sans-serif; font-size: 13px; fill: rgb(111, 111, 111); white-space: pre;">connection</text>
    <text x="136.29248046875" y="19.25" style="font-family: 'Open Sans', sans-serif; font-size: 13px; fill: rgb(153, 153, 153); white-space: pre;">integer</text>
  </svg>
  <svg x="0" y="112" transform="matrix(1, 0, 0, 1, 0, 112)">
    <rect x="0" y="0" width="189.15185546875" height="32" fill="#F2F2F2"/>
    <text x="10" y="19.25" style="font-family: 'Open Sans', sans-serif; font-size: 13px; fill: rgb(111, 111, 111); white-space: pre;">sequence</text>
    <text x="136.29248046875" y="19.25" style="font-family: 'Open Sans', sans-serif; font-size: 13px; fill: rgb(153, 153, 153); white-space: pre;">integer</text>
  </svg>
  <svg x="0" y="144" transform="matrix(1, 0, 0, 1, 0, 144)">
    <rect x="0" y="0" width="189.15185546875" height="32" fill="#F2F2F2"/>
    <text x="10" y="19.25" style="font-family: 'Open Sans', sans-serif; font-size: 13px; fill: rgb(111, 111, 111); white-space: pre;">message</text>
    <text x="152.142578125" y="19.25" style="font-family: 'Open Sans', sans-serif; font-size: 13px; fill: rgb(153, 153, 153); white-space: pre;">blob</text>
  </svg>
  <svg x="0" y="314" transform="matrix(1, 0, 0, 1, 0, 314.00000000000006)">
    <rect x="0" y="0" width="189.15185546875" height="32" fill="#316896"/>
    <text x="10" y="19.25" style="font-family: 'Open Sans', sans-serif; font-size: 13px; font-weight: bold; fill: rgb(255, 255, 255); white-space: pre;">outbox</text>
  </svg>
  <svg x="0" y="346" transform="matrix(1, 0, 0, 1, 0, 346.00000000000006)">
    <rect x="0" y="0" width="189.15185546875" height="32" fill="#F2F2F2"/>
    <text x="10" y="19.25" style="font-family: 'Open Sans', sans-serif; font-size: 13px; font-weight: bold; fill: rgb(111, 111, 111); white-space: pre;">id</text>
    <path transform="translate(26.19384765625,9.25)" fill="#6F6F6F" d="M 6.5625 0.9844 C 8.1935 0.9844 9.5156 2.3065 9.5156 3.9375 C 9.5156 5.5685 8.1935 6.8906 6.5625 6.8906 C 6.1735 6.8906 5.8022 6.8153 5.462 6.6786 L 4.5938 7.5469 H 3.9375 V 8.5313 H 2.9531 V 9.5156 H 0.9844 V 7.5469 L 3.736 4.7952 C 3.6518 4.5171 3.6092 4.2281 3.6094 3.9375 C 3.6094 2.3065 4.9315 0.9844 6.5625 0.9844 Z M 6.5625 0 C 4.388 0 2.625 1.7627 2.625 3.9375 C 2.625 4.1186 2.6373 4.2989 2.6619 4.4772 L 0.1441 6.995 C 0.0519 7.0873 0 7.2125 0 7.343 L 0 10.0078 C 0 10.2797 0.2204 10.5 0.4922 10.5 H 3.4453 C 3.7171 10.5 3.9375 10.2797 3.9375 10.0078 V 9.5156 H 4.4297 C 4.7015 9.5156 4.9219 9.2953 4.9219 9.0234 V 8.6133 L 5.7432 7.7895 C 6.011 7.8464 6.2848 7.875 6.5625 7.875 C 8.737 7.875 10.5 6.1123 10.5 3.9375 C 10.5 1.763 8.7373 0 6.5625 0 Z M 6.5625 2.9531 C 6.5625 3.4968 7.0032 3.9375 7.5469 3.9375 C 8.0905 3.9375 8.5313 3.4968 8.5313 2.9531 C 8.5313 2.4095 8.0905 1.9688 7.5469 1.9688 C 7.0032 1.9688 6.5625 2.4095 6.5625 2.9531 Z"/>
    <text x="132.388671875" y="19.25" style="font-family: 'Open Sans', sans-serif; font-size: 13px; font-weight: bold; fill: rgb(153, 153, 153); white-space: pre;">integer</text>
  </svg>
  <svg x="0" y="378" transform="matrix(1, 0, 0, 1, 0, 378.00000000000006)">
    <rect x="0" y="0" width="189.15185546875" height="32" fill="#F2F2F2"/>
    <text x="10" y="19.25" style="font-family: 'Open Sans', sans-serif; font-size: 13px; fill: rgb(111, 111, 111); white-space: pre;">connection</text>
    <text x="136.29248046875" y="19.25" style="font-family: 'Open Sans', sans-serif; font-size: 13px; fill: rgb(153, 153, 153); white-space: pre;">integer</text>
  </svg>
  <svg x="0" y="410" transform="matrix(1, 0, 0, 1, 0, 410.00000000000006)">
    <rect x="0" y="0" width="189.15185546875" height="32" fill="#F2F2F2"/>
    <text x="10" y="19.25" style="font-family: 'Open Sans', sans-serif; font-size: 13px; fill: rgb(111, 111, 111); white-space: pre;">sequence</text>
    <text x="136.29248046875" y="19.25" style="font-family: 'Open Sans', sans-serif; font-size: 13px; fill: rgb(153, 153, 153); white-space: pre;">integer</text>
  </svg>
  <svg x="0" y="442" transform="matrix(1, 0, 0, 1, 0, 442.00000000000006)">
    <rect x="0" y="0" width="189.15185546875" height="32" fill="#F2F2F2"/>
    <text x="10" y="19.25" style="font-family: 'Open Sans', sans-serif; font-size: 13px; fill: rgb(111, 111, 111); white-space: pre;">message</text>
    <text x="152.142578125" y="19.25" style="font-family: 'Open Sans', sans-serif; font-size: 13px; fill: rgb(153, 153, 153); white-space: pre;">blob</text>
  </svg>
</svg>